<svg width="452" height="37" viewBox="0 0 452 37" fill="none" xmlns="http://www.w3.org/2000/svg">
<mask id="path-1-outside-1_39_61" maskUnits="userSpaceOnUse" x="0" y="0" width="452" height="37" fill="black">
<rect fill="white" width="452" height="37"/>
<path d="M5 5.02703H6.92077H15.8161L21.6845 20.5H22.2404L26 12.1622C26 12.1622 26.9565 8.71644 28.6648 7.5C30.3651 6.28921 33.9155 6.5 33.9155 6.5C33.9155 6.5 37.4862 6.26113 39.1662 7.5C40.4884 8.47503 41.5 11 41.5 11L45.5905 20.5H46.1465L52.0149 5.02703H60.9102H63L55.5 28C55.1398 30.8315 54.416 31.9604 52.0149 33H39.1662C37.7585 31.8928 37.2746 31.1339 37 29.5L33.9155 20.5135L31.5 29.5C30.6098 31.454 29.9502 32.1153 28.6648 33H15.8161C13.583 31.2512 12.7461 30.1569 12 28L5 5.02703Z"/>
<path d="M63.8526 25.8649V12.1622C63.8526 7.40541 67.4766 5.02703 74.7246 5.02703H88.5617C95.8097 5.02703 99.4337 7.40541 99.4337 12.1622V25.8649C99.4337 30.6216 95.8097 33 88.5617 33H74.7246C67.4766 33 63.8526 30.6216 63.8526 25.8649ZM74.6011 26.1892C74.6011 26.4865 74.8276 26.6351 75.2806 26.6351H88.0058C88.4588 26.6351 88.6853 26.4865 88.6853 26.1892V11.8378C88.6853 11.5405 88.4588 11.3919 88.0058 11.3919H75.2806C74.8276 11.3919 74.6011 11.5405 74.6011 11.8378V26.1892Z"/>
<path d="M104.123 33V5.02703H125.126C132.374 5.02703 135.998 7.40541 135.998 12.1622V16.8649C135.998 20.1622 134.268 22.3243 130.809 23.3514L138 33L135.998 33H123L114.872 23.9595V33H104.123ZM114.872 17.5946H124.57C125.023 17.5946 125.249 17.4459 125.249 17.1486V11.8378C125.249 11.5405 125.023 11.3919 124.57 11.3919H114.872V17.5946Z"/>
<path d="M140.096 26.6351V5.02703H150.845V26.6351H168.079V33L144.5 33C141.013 31.9139 139.872 30.6602 140.096 26.6351Z"/>
<path d="M170.037 33V5.02703H185.974C198.246 5.02703 204.382 9.05405 204.382 17.1081V20.9189C204.382 28.973 198.246 33 185.974 33H170.037ZM180.785 26.6351H186.592C191.287 26.6351 193.634 25.0811 193.634 21.973V16.0541C193.634 12.9459 191.287 11.3919 186.592 11.3919H180.785V26.6351Z"/>
<path d="M204.9 14.5135L209.471 3H218.367L219.355 3.97297L212.498 15.8108L204.9 14.5135Z"/>
<path d="M220.041 33V26.6351H239.253C239.706 26.6351 239.932 26.4865 239.932 26.1892V23.4324C239.932 23.0541 239.685 22.8378 239.191 22.7838L227.763 21.2432C222.615 20.5946 220.041 18.3378 220.041 14.473V12.1622C220.041 7.40541 223.665 5.02703 230.913 5.02703H244.627H249.445V11.3919H231.469C231.016 11.3919 230.79 11.5405 230.79 11.8378V14.4324C230.79 14.7838 231.037 15 231.531 15.0811L242.959 16.5405C248.107 17.2432 250.681 19.5135 250.681 23.3514V25.8649C250.681 30.6216 247.057 33 239.809 33H224.86H220.041Z"/>
<path d="M264.643 33V11.3919C264.672 7.28625 265.877 5.83693 270.5 5.02703H294.479V11.3919H275.392V16.7838H292.626V23.1486H275.392V33H264.643Z"/>
<path d="M296.816 33V5.02703H307.564V33H296.816Z"/>
<path d="M312.881 33V5.02703H320.5L330 12V5.02703H338V33H330L320.5 24.5V33H312.881Z"/>
<path d="M343.164 26.6351V11.2155C343.624 7.45841 344.711 5.90324 349.5 5.02703H373V11.3919H353.912V15.5676H373V21.9324H353.912V26.6351H373V33L349.5 32.8236C345.084 32.0624 343.309 31.0385 343.164 26.6351Z"/>
<path d="M378.571 32.8236V26.4587H391.5C391.953 26.4587 393.5 26.3101 393.5 26.0128V23.256C393.5 22.8776 392.994 22.6614 392.5 22.6074H383.389C378.241 21.9587 378.571 18.1614 378.571 14.2965V11.9857C378.571 7.22897 382.195 4.85059 389.443 4.85059H403.156H407.974V11.2155H396.5C396.047 11.2155 394 11.3641 394 11.6614V14.256C394 14.6074 395.006 14.4189 395.5 14.5L403.156 14.9046C408.304 15.6074 409.21 19.3371 409.21 23.1749V25.6884C409.21 30.4452 405.586 32.8236 398.338 32.8236H383.389H378.571Z"/>
<path d="M413.397 11.3919V5.02703H448.855V11.3919H436.5V33H425.752V11.3919H413.397Z"/>
</mask>
<path d="M5 5.02703H6.92077H15.8161L21.6845 20.5H22.2404L26 12.1622C26 12.1622 26.9565 8.71644 28.6648 7.5C30.3651 6.28921 33.9155 6.5 33.9155 6.5C33.9155 6.5 37.4862 6.26113 39.1662 7.5C40.4884 8.47503 41.5 11 41.5 11L45.5905 20.5H46.1465L52.0149 5.02703H60.9102H63L55.5 28C55.1398 30.8315 54.416 31.9604 52.0149 33H39.1662C37.7585 31.8928 37.2746 31.1339 37 29.5L33.9155 20.5135L31.5 29.5C30.6098 31.454 29.9502 32.1153 28.6648 33H15.8161C13.583 31.2512 12.7461 30.1569 12 28L5 5.02703Z" fill="white"/>
<path d="M63.8526 25.8649V12.1622C63.8526 7.40541 67.4766 5.02703 74.7246 5.02703H88.5617C95.8097 5.02703 99.4337 7.40541 99.4337 12.1622V25.8649C99.4337 30.6216 95.8097 33 88.5617 33H74.7246C67.4766 33 63.8526 30.6216 63.8526 25.8649ZM74.6011 26.1892C74.6011 26.4865 74.8276 26.6351 75.2806 26.6351H88.0058C88.4588 26.6351 88.6853 26.4865 88.6853 26.1892V11.8378C88.6853 11.5405 88.4588 11.3919 88.0058 11.3919H75.2806C74.8276 11.3919 74.6011 11.5405 74.6011 11.8378V26.1892Z" fill="white"/>
<path d="M104.123 33V5.02703H125.126C132.374 5.02703 135.998 7.40541 135.998 12.1622V16.8649C135.998 20.1622 134.268 22.3243 130.809 23.3514L138 33L135.998 33H123L114.872 23.9595V33H104.123ZM114.872 17.5946H124.57C125.023 17.5946 125.249 17.4459 125.249 17.1486V11.8378C125.249 11.5405 125.023 11.3919 124.57 11.3919H114.872V17.5946Z" fill="white"/>
<path d="M140.096 26.6351V5.02703H150.845V26.6351H168.079V33L144.5 33C141.013 31.9139 139.872 30.6602 140.096 26.6351Z" fill="white"/>
<path d="M170.037 33V5.02703H185.974C198.246 5.02703 204.382 9.05405 204.382 17.1081V20.9189C204.382 28.973 198.246 33 185.974 33H170.037ZM180.785 26.6351H186.592C191.287 26.6351 193.634 25.0811 193.634 21.973V16.0541C193.634 12.9459 191.287 11.3919 186.592 11.3919H180.785V26.6351Z" fill="white"/>
<path d="M204.9 14.5135L209.471 3H218.367L219.355 3.97297L212.498 15.8108L204.9 14.5135Z" fill="white"/>
<path d="M220.041 33V26.6351H239.253C239.706 26.6351 239.932 26.4865 239.932 26.1892V23.4324C239.932 23.0541 239.685 22.8378 239.191 22.7838L227.763 21.2432C222.615 20.5946 220.041 18.3378 220.041 14.473V12.1622C220.041 7.40541 223.665 5.02703 230.913 5.02703H244.627H249.445V11.3919H231.469C231.016 11.3919 230.79 11.5405 230.79 11.8378V14.4324C230.79 14.7838 231.037 15 231.531 15.0811L242.959 16.5405C248.107 17.2432 250.681 19.5135 250.681 23.3514V25.8649C250.681 30.6216 247.057 33 239.809 33H224.86H220.041Z" fill="white"/>
<path d="M264.643 33V11.3919C264.672 7.28625 265.877 5.83693 270.5 5.02703H294.479V11.3919H275.392V16.7838H292.626V23.1486H275.392V33H264.643Z" fill="white"/>
<path d="M296.816 33V5.02703H307.564V33H296.816Z" fill="white"/>
<path d="M312.881 33V5.02703H320.5L330 12V5.02703H338V33H330L320.5 24.5V33H312.881Z" fill="white"/>
<path d="M343.164 26.6351V11.2155C343.624 7.45841 344.711 5.90324 349.5 5.02703H373V11.3919H353.912V15.5676H373V21.9324H353.912V26.6351H373V33L349.5 32.8236C345.084 32.0624 343.309 31.0385 343.164 26.6351Z" fill="white"/>
<path d="M378.571 32.8236V26.4587H391.5C391.953 26.4587 393.5 26.3101 393.5 26.0128V23.256C393.5 22.8776 392.994 22.6614 392.5 22.6074H383.389C378.241 21.9587 378.571 18.1614 378.571 14.2965V11.9857C378.571 7.22897 382.195 4.85059 389.443 4.85059H403.156H407.974V11.2155H396.5C396.047 11.2155 394 11.3641 394 11.6614V14.256C394 14.6074 395.006 14.4189 395.5 14.5L403.156 14.9046C408.304 15.6074 409.21 19.3371 409.21 23.1749V25.6884C409.21 30.4452 405.586 32.8236 398.338 32.8236H383.389H378.571Z" fill="white"/>
<path d="M413.397 11.3919V5.02703H448.855V11.3919H436.5V33H425.752V11.3919H413.397Z" fill="white"/>
<path d="M5 5.02703H6.92077H15.8161L21.6845 20.5H22.2404L26 12.1622C26 12.1622 26.9565 8.71644 28.6648 7.5C30.3651 6.28921 33.9155 6.5 33.9155 6.5C33.9155 6.5 37.4862 6.26113 39.1662 7.5C40.4884 8.47503 41.5 11 41.5 11L45.5905 20.5H46.1465L52.0149 5.02703H60.9102H63L55.5 28C55.1398 30.8315 54.416 31.9604 52.0149 33H39.1662C37.7585 31.8928 37.2746 31.1339 37 29.5L33.9155 20.5135L31.5 29.5C30.6098 31.454 29.9502 32.1153 28.6648 33H15.8161C13.583 31.2512 12.7461 30.1569 12 28L5 5.02703Z" stroke="black" stroke-width="6" mask="url(#path-1-outside-1_39_61)"/>
<path d="M63.8526 25.8649V12.1622C63.8526 7.40541 67.4766 5.02703 74.7246 5.02703H88.5617C95.8097 5.02703 99.4337 7.40541 99.4337 12.1622V25.8649C99.4337 30.6216 95.8097 33 88.5617 33H74.7246C67.4766 33 63.8526 30.6216 63.8526 25.8649ZM74.6011 26.1892C74.6011 26.4865 74.8276 26.6351 75.2806 26.6351H88.0058C88.4588 26.6351 88.6853 26.4865 88.6853 26.1892V11.8378C88.6853 11.5405 88.4588 11.3919 88.0058 11.3919H75.2806C74.8276 11.3919 74.6011 11.5405 74.6011 11.8378V26.1892Z" stroke="black" stroke-width="6" mask="url(#path-1-outside-1_39_61)"/>
<path d="M104.123 33V5.02703H125.126C132.374 5.02703 135.998 7.40541 135.998 12.1622V16.8649C135.998 20.1622 134.268 22.3243 130.809 23.3514L138 33L135.998 33H123L114.872 23.9595V33H104.123ZM114.872 17.5946H124.57C125.023 17.5946 125.249 17.4459 125.249 17.1486V11.8378C125.249 11.5405 125.023 11.3919 124.57 11.3919H114.872V17.5946Z" stroke="black" stroke-width="6" mask="url(#path-1-outside-1_39_61)"/>
<path d="M140.096 26.6351V5.02703H150.845V26.6351H168.079V33L144.5 33C141.013 31.9139 139.872 30.6602 140.096 26.6351Z" stroke="black" stroke-width="6" mask="url(#path-1-outside-1_39_61)"/>
<path d="M170.037 33V5.02703H185.974C198.246 5.02703 204.382 9.05405 204.382 17.1081V20.9189C204.382 28.973 198.246 33 185.974 33H170.037ZM180.785 26.6351H186.592C191.287 26.6351 193.634 25.0811 193.634 21.973V16.0541C193.634 12.9459 191.287 11.3919 186.592 11.3919H180.785V26.6351Z" stroke="black" stroke-width="6" mask="url(#path-1-outside-1_39_61)"/>
<path d="M204.9 14.5135L209.471 3H218.367L219.355 3.97297L212.498 15.8108L204.9 14.5135Z" stroke="black" stroke-width="6" mask="url(#path-1-outside-1_39_61)"/>
<path d="M220.041 33V26.6351H239.253C239.706 26.6351 239.932 26.4865 239.932 26.1892V23.4324C239.932 23.0541 239.685 22.8378 239.191 22.7838L227.763 21.2432C222.615 20.5946 220.041 18.3378 220.041 14.473V12.1622C220.041 7.40541 223.665 5.02703 230.913 5.02703H244.627H249.445V11.3919H231.469C231.016 11.3919 230.79 11.5405 230.79 11.8378V14.4324C230.79 14.7838 231.037 15 231.531 15.0811L242.959 16.5405C248.107 17.2432 250.681 19.5135 250.681 23.3514V25.8649C250.681 30.6216 247.057 33 239.809 33H224.86H220.041Z" stroke="black" stroke-width="6" mask="url(#path-1-outside-1_39_61)"/>
<path d="M264.643 33V11.3919C264.672 7.28625 265.877 5.83693 270.5 5.02703H294.479V11.3919H275.392V16.7838H292.626V23.1486H275.392V33H264.643Z" stroke="black" stroke-width="6" mask="url(#path-1-outside-1_39_61)"/>
<path d="M296.816 33V5.02703H307.564V33H296.816Z" stroke="black" stroke-width="6" mask="url(#path-1-outside-1_39_61)"/>
<path d="M312.881 33V5.02703H320.5L330 12V5.02703H338V33H330L320.5 24.5V33H312.881Z" stroke="black" stroke-width="6" mask="url(#path-1-outside-1_39_61)"/>
<path d="M343.164 26.6351V11.2155C343.624 7.45841 344.711 5.90324 349.5 5.02703H373V11.3919H353.912V15.5676H373V21.9324H353.912V26.6351H373V33L349.5 32.8236C345.084 32.0624 343.309 31.0385 343.164 26.6351Z" stroke="black" stroke-width="6" mask="url(#path-1-outside-1_39_61)"/>
<path d="M378.571 32.8236V26.4587H391.5C391.953 26.4587 393.5 26.3101 393.5 26.0128V23.256C393.5 22.8776 392.994 22.6614 392.5 22.6074H383.389C378.241 21.9587 378.571 18.1614 378.571 14.2965V11.9857C378.571 7.22897 382.195 4.85059 389.443 4.85059H403.156H407.974V11.2155H396.5C396.047 11.2155 394 11.3641 394 11.6614V14.256C394 14.6074 395.006 14.4189 395.5 14.5L403.156 14.9046C408.304 15.6074 409.21 19.3371 409.21 23.1749V25.6884C409.21 30.4452 405.586 32.8236 398.338 32.8236H383.389H378.571Z" stroke="black" stroke-width="6" mask="url(#path-1-outside-1_39_61)"/>
<path d="M413.397 11.3919V5.02703H448.855V11.3919H436.5V33H425.752V11.3919H413.397Z" stroke="black" stroke-width="6" mask="url(#path-1-outside-1_39_61)"/>
</svg>
